HIERARCHY
ROOT Hips
{
  OFFSET 0 0.240689 0
  CHANNELS 6 Xposition Yposition Zposition Zrotation Xrotation Yrotation
  JOINT Bip01_Spine0
  {
    OFFSET 0 -24.7459 49.7988
    CHANNELS 6 Xposition Yposition Zposition Zrotation Xrotation Yrotation
    JOINT Bip01_Pelvis
    {
      OFFSET 0 0 0
      CHANNELS 6 Xposition Yposition Zposition Zrotation Xrotation Yrotation
      JOINT Bip01_Spine0_Tail
      {
        OFFSET -6.47486 -3.86022 0
        CHANNELS 6 Xposition Yposition Zposition Zrotation Xrotation Yrotation
        JOINT Bip01_Spine0_Tail1
        {
          OFFSET 10.3837 -0.00825882 0
          CHANNELS 6 Xposition Yposition Zposition Zrotation Xrotation Yrotation
          JOINT Bip01_Spine0_Tail2
          {
            OFFSET 10.3837 -0.00826263 0
            CHANNELS 6 Xposition Yposition Zposition Zrotation Xrotation Yrotation
            JOINT Bip01_Spine0_Tail3
            {
              OFFSET 10.3837 -0.00825882 0
              CHANNELS 6 Xposition Yposition Zposition Zrotation Xrotation Yrotation
              JOINT Bip01_Spine0_Tail4
              {
                OFFSET 10.3837 -0.00826263 0
                CHANNELS 6 Xposition Yposition Zposition Zrotation Xrotation Yrotation
                End Site
                {
                  OFFSET 0 0 0
                }
              }
            }
          }
        }
      }
      JOINT Bip01_R_Thigh
      {
        OFFSET 0 -1.52588e-005 -8.75617
        CHANNELS 6 Xposition Yposition Zposition Zrotation Xrotation Yrotation
        JOINT Bip01_R_Calf
        {
          OFFSET 19.7638 0 0
          CHANNELS 6 Xposition Yposition Zposition Zrotation Xrotation Yrotation
          JOINT Bip01_R_Foot
          {
            OFFSET 18.6534 0 0
            CHANNELS 6 Xposition Yposition Zposition Zrotation Xrotation Yrotation
            JOINT Bip01_R_Toe0
            {
              OFFSET 5.09145 13.9567 0
              CHANNELS 6 Xposition Yposition Zposition Zrotation Xrotation Yrotation
              JOINT Bip01_R_Toe01
              {
                OFFSET 4.28803 0 0
                CHANNELS 6 Xposition Yposition Zposition Zrotation Xrotation Yrotation
                JOINT Bip01_R_Toe02
                {
                  OFFSET 3.85801 0 0
                  CHANNELS 6 Xposition Yposition Zposition Zrotation Xrotation Yrotation
                  End Site
                  {
                    OFFSET 0 0 0
                  }
                }
              }
            }
          }
        }
      }
      JOINT Bip01_L_Thigh
      {
        OFFSET 0 1.52588e-005 8.75617
        CHANNELS 6 Xposition Yposition Zposition Zrotation Xrotation Yrotation
        JOINT Bip01_L_Calf
        {
          OFFSET 19.7638 0 0
          CHANNELS 6 Xposition Yposition Zposition Zrotation Xrotation Yrotation
          JOINT Bip01_L_Foot
          {
            OFFSET 18.6534 0 0
            CHANNELS 6 Xposition Yposition Zposition Zrotation Xrotation Yrotation
            JOINT Bip01_L_Toe0
            {
              OFFSET 5.09144 13.9567 0
              CHANNELS 6 Xposition Yposition Zposition Zrotation Xrotation Yrotation
              JOINT Bip01_L_Toe01
              {
                OFFSET 4.28802 0 0
                CHANNELS 6 Xposition Yposition Zposition Zrotation Xrotation Yrotation
                JOINT Bip01_L_Toe02
                {
                  OFFSET 3.85801 0 0
                  CHANNELS 6 Xposition Yposition Zposition Zrotation Xrotation Yrotation
                  End Site
                  {
                    OFFSET 0 0 0
                  }
                }
              }
            }
          }
        }
      }
      JOINT Bip01_Spine
      {
        OFFSET 9.14835 -0.00640869 -1.1e-005
        CHANNELS 6 Xposition Yposition Zposition Zrotation Xrotation Yrotation
        JOINT Bip01_Spine1
        {
          OFFSET 8.04366 -0.00638199 0
          CHANNELS 6 Xposition Yposition Zposition Zrotation Xrotation Yrotation
          JOINT Bip01_Spine2
          {
            OFFSET 8.04367 -0.00639343 0
            CHANNELS 6 Xposition Yposition Zposition Zrotation Xrotation Yrotation
            JOINT Bip01_Spine3
            {
              OFFSET 8.04304 -0.00831222 0
              CHANNELS 6 Xposition Yposition Zposition Zrotation Xrotation Yrotation
              JOINT Bip01_Neck
              {
                OFFSET 10.6685 1.06813 0
                CHANNELS 6 Xposition Yposition Zposition Zrotation Xrotation Yrotation
                JOINT Bip01_R_Clavicle
                {
                  OFFSET -3.21661 -4.89635 -9.04802
                  CHANNELS 6 Xposition Yposition Zposition Zrotation Xrotation Yrotation
                  JOINT Bip01_R_UpperArm
                  {
                    OFFSET 19.0492 0 0
                    CHANNELS 6 Xposition Yposition Zposition Zrotation Xrotation Yrotation
                    JOINT Bip01_R_Forearm
                    {
                      OFFSET 10.3706 0 0
                      CHANNELS 6 Xposition Yposition Zposition Zrotation Xrotation Yrotation
                      JOINT Bip01_R_Hand
                      {
                        OFFSET 22.8632 0 0
                        CHANNELS 6 Xposition Yposition Zposition Zrotation Xrotation Yrotation
                        JOINT Bip01_R_Finger0
                        {
                          OFFSET 6.48259 0.103651 0.504496
                          CHANNELS 6 Xposition Yposition Zposition Zrotation Xrotation Yrotation
                          JOINT Bip01_R_Finger01
                          {
                            OFFSET 3.66847 0 0
                            CHANNELS 6 Xposition Yposition Zposition Zrotation Xrotation Yrotation
                            End Site
                            {
                              OFFSET 0 0 0
                            }
                          }
                        }
                      }
                    }
                  }
                }
                JOINT Bip01_L_Clavicle
                {
                  OFFSET -3.21661 -4.89641 9.04797
                  CHANNELS 6 Xposition Yposition Zposition Zrotation Xrotation Yrotation
                  JOINT Bip01_L_UpperArm
                  {
                    OFFSET 19.0492 0 0
                    CHANNELS 6 Xposition Yposition Zposition Zrotation Xrotation Yrotation
                    JOINT Bip01_L_Forearm
                    {
                      OFFSET 10.3706 0 0
                      CHANNELS 6 Xposition Yposition Zposition Zrotation Xrotation Yrotation
                      JOINT Bip01_L_Hand
                      {
                        OFFSET 22.8631 0 0
                        CHANNELS 6 Xposition Yposition Zposition Zrotation Xrotation Yrotation
                        JOINT Bip01_L_Finger0
                        {
                          OFFSET 6.48257 0.103655 -0.504492
                          CHANNELS 6 Xposition Yposition Zposition Zrotation Xrotation Yrotation
                          JOINT Bip01_L_Finger01
                          {
                            OFFSET 3.66844 0 0
                            CHANNELS 6 Xposition Yposition Zposition Zrotation Xrotation Yrotation
                            End Site
                            {
                              OFFSET 0 0 0
                            }
                          }
                        }
                      }
                    }
                  }
                }
                JOINT Bip01_Neck1
                {
                  OFFSET 7.52459 -0.00656509 0
                  CHANNELS 6 Xposition Yposition Zposition Zrotation Xrotation Yrotation
                  JOINT Bip01_Neck2
                  {
                    OFFSET 8.4783 -0.00588226 0
                    CHANNELS 6 Xposition Yposition Zposition Zrotation Xrotation Yrotation
                    JOINT Bip01_Head
                    {
                      OFFSET 8.41606 0 0
                      CHANNELS 6 Xposition Yposition Zposition Zrotation Xrotation Yrotation
                      JOINT EyesBlue
                      {
                        OFFSET 0 0 0
                        CHANNELS 6 Xposition Yposition Zposition Zrotation Xrotation Yrotation
                        JOINT EyesBlue_2
                        {
                          OFFSET 0 -0.500007 0
                          CHANNELS 6 Xposition Yposition Zposition Zrotation Xrotation Yrotation
                          End Site
                          {
                            OFFSET 0 0 0
                          }
                        }
                      }
                      JOINT Bip01_Head2_Eyeleds
                      {
                        OFFSET 6.52751 7.61746 2.2e-005
                        CHANNELS 6 Xposition Yposition Zposition Zrotation Xrotation Yrotation
                        End Site
                        {
                          OFFSET 0 0 0
                        }
                      }
                      JOINT Bip01_Head_Muzzle
                      {
                        OFFSET 2.88628 13.9448 3.88994
                        CHANNELS 6 Xposition Yposition Zposition Zrotation Xrotation Yrotation
                        End Site
                        {
                          OFFSET 0 0 0
                        }
                      }
                      JOINT Bip01_Head1_Jaw
                      {
                        OFFSET 0.271065 1.32405 0
                        CHANNELS 6 Xposition Yposition Zposition Zrotation Xrotation Yrotation
                        JOINT _Bip01_Head11_TungeControler
                        {
                          OFFSET 4.61616 5.82872 0
                          CHANNELS 6 Xposition Yposition Zposition Zrotation Xrotation Yrotation
                          JOINT _Bip01_Ponytail3_tunge
                          {
                            OFFSET 5.17785 2.98805 0
                            CHANNELS 6 Xposition Yposition Zposition Zrotation Xrotation Yrotation
                            JOINT Bip01_Ponytail31
                            {
                              OFFSET 5.57569 0 0
                              CHANNELS 6 Xposition Yposition Zposition Zrotation Xrotation Yrotation
                              JOINT Bip01_Ponytail32
                              {
                                OFFSET 2.93165 0 0
                                CHANNELS 6 Xposition Yposition Zposition Zrotation Xrotation Yrotation
                                JOINT Bip01_Ponytail3Nub
                                {
                                  OFFSET 3.30155 0 0
                                  CHANNELS 6 Xposition Yposition Zposition Zrotation Xrotation Yrotation
                                  End Site
                                  {
                                    OFFSET 0 0 0
                                  }
                                }
                              }
                            }
                          }
                        }
                        JOINT Bip01_Head_JawNub
                        {
                          OFFSET 15.5776 -0.000389099 0
                          CHANNELS 6 Xposition Yposition Zposition Zrotation Xrotation Yrotation
                          End Site
                          {
                            OFFSET 0 0 0
                          }
                        }
                      }
                      JOINT Bip01_Ponytail2
                      {
                        OFFSET 9.40334 1.03973 -6.51764
                        CHANNELS 6 Xposition Yposition Zposition Zrotation Xrotation Yrotation
                        JOINT Bip01_Ponytail21
                        {
                          OFFSET 2.77018 -0.00640106 1.33514e-005
                          CHANNELS 6 Xposition Yposition Zposition Zrotation Xrotation Yrotation
                          End Site
                          {
                            OFFSET 0 0 0
                          }
                        }
                      }
                      JOINT Bip01_Ponytail1
                      {
                        OFFSET 9.40368 1.03969 6.51768
                        CHANNELS 6 Xposition Yposition Zposition Zrotation Xrotation Yrotation
                        JOINT Bip01_Ponytail11
                        {
                          OFFSET 2.77018 -0.00640487 0
                          CHANNELS 6 Xposition Yposition Zposition Zrotation Xrotation Yrotation
                          End Site
                          {
                            OFFSET 0 0 0
                          }
                        }
                      }
                    }
                  }
                }
              }
            }
          }
        }
      }
    }
  }
}
MOTION
Frames:	4
Frame Time:	0.0333333
0 0 -13.9282 -0 -90 -0 2.43718 -28.7019 44.8786 83.4681 -1.26226 100.89 0 0 0 -89.9999 -4.0124e-005 -88.0678 -6.47344 -3.86247 -0.218809 153.948 2.27898 -21.7563 8.89589 -0.007942 7.7e-005 -7.69332 -2.83408 -14.088 10.2239 -0.007621 0.00018 7.82591 -2.78625 3.56221 9.85422 -0.005924 9.9e-005 18.6752 -2.78048 5.63595 8.04664 -0.005523 0.000129 28.2139 -2.76928 8.12883 1.5e-005 -1.1e-005 -8.75617 -88.7332 -9.7869 161.282 19.7638 1e-006 1e-006 -46.0175 0.000873774 0.00122315 18.6534 1e-006 1e-006 -16.0324 -7.16866 -4.13714 5.09143 13.9567 0 129.209 10.2351 7.77761 4.28801 0 -3.55271e-015 42 1.55124e-005 -9.32517e-007 3.85803 -1.2e-005 1.00001e-006 -45 -3.54078e-005 -2.14377e-005 -1.1e-005 1.1e-005 8.75617 -119.209 1.3215 -154.699 19.7638 4e-006 -3.55271e-015 -82.2516 1.07163e-005 0.00266989 18.6534 1.06581e-014 -7.10543e-015 -5.53843 6.6686 4.1522 5.09144 13.9567 -7.99582e-007 94.446 -14.4349 -5.06245 4.288 -7.10543e-015 1e-006 70.5 -7.50073e-006 -5.4266e-007 3.858 1e-006 -1e-006 -2.5 -2.44245e-005 -4.1918e-007 9.14198 -0.006317 0.308405 -9.94777 0.33765 1.41957 8.04417 -0.006294 9.5e-005 -6.4997 -0.004143 -5.91328 8.04447 -0.006301 8.6e-005 -7.02613 -0.00179862 -3.72694 8.04243 -0.008205 2.4e-005 -3.81152 -0.00669264 -9.1651 10.6696 1.06798 6.05333e-006 -4.66087 -0.214719 15.4564 -1.1603 -4.32212 -9.80584 -131.672 -66.6153 162.472 19.0492 -1e-006 1e-006 71.4096 6.54649 -97.8617 10.3706 1e-006 -2.84217e-014 -45.8011 0.00103782 0.002426 22.8631 1e-006 -3.19744e-014 -36.664 22.4314 4.07268 6.48256 0.103653 0.504495 -61.725 -10.1061 -14.7196 3.66843 -3.00204e-013 1e-006 40.107 2.26229e-005 -3.93785e-006 -6.33305 -4.3948 7.53346 136.871 68.1483 -66.944 19.0492 -1e-006 5e-006 86.6174 1.8985 89.6039 10.3706 -1e-006 3.01981e-014 -64.4852 0.000881028 0.0038795 22.8631 0 0 -29.6565 -12.4445 -8.19877 6.48256 0.103651 -0.504495 -54.014 -7.74648 6.74651 3.66843 4.50307e-013 -1e-006 40.107 2.35678e-005 -2.18612e-005 7.52716 -0.006629 3.70002e-005 3.0296 0.828557 -15.8405 8.47204 -0.005931 2.29997e-005 2.48789 -0.177529 -4.09549 8.41605 3e-006 1.7053e-013 -62.328 -8.2456 6.87705 -3e-006 3e-006 -3e-006 -23.1098 1.37701e-015 90 -4.73235e-007 -0.500002 9.53677e-006 -180 90 -90 0 0 0 -99.049 7.01671e-015 -180 4.28408 14.3116 3.88993 -22.989 1.37021e-015 90 0 0 0 -87.1908 -1.52588e-005 -180 0 0 0 -162.289 2.1912e-005 -5.79196e-006 0 0 0 170.24 -2.04139e-005 1.35265e-005 0 0 0 1.83152 4.03765e-007 9.64499e-008 0 0 0 -17.65 -2.06208e-006 -1.03695e-006 0 0 0 -26.1943 -4.45779e-007 -5.28344e-007 15.5776 -0.000396 -6.99999e-006 -1.59028e-015 1.98785e-016 3.97569e-016 9.40587 1.0411 -6.51596 70.3397 -28.946 146.584 2.76732 -0.003047 -0.005001 -39.6035 50.8656 39.8733 9.40621 1.04106 6.51599 70.3399 28.946 -146.584 2.76732 -0.003095 0.004978 -39.6037 -50.8656 -39.8733 
0 0 -13.9282 -0 -90 -0 3.28328 -28.7019 44.8785 83.1319 -1.32724 100.882 0 0 0 -89.9999 -4.62417e-005 -87.9854 -6.47278 -3.86247 -0.227921 151.225 0.414845 -19.1225 8.89589 -0.007942 7.7e-005 -7.63884 -2.13204 -18.8746 10.2239 -0.007621 0.00018 7.89752 -2.09536 -9.63784 9.85422 -0.005924 9.9e-005 18.7233 -2.09244 -8.19881 8.04664 -0.005523 0.000129 28.2338 -2.08623 -6.47195 1.5e-005 -1.1e-005 -8.75617 -88.9745 -10.0332 162.281 19.7638 1e-006 1e-006 -47.0576 0.000851427 0.00123881 18.6534 1e-006 1e-006 -15.0787 -6.5932 -5.25195 5.09143 13.9567 0 129.209 10.2351 7.77761 4.28801 -7.10543e-015 -3.55271e-015 42 1.52275e-005 -9.27775e-007 3.85803 -1.2e-005 1.00001e-006 -45 -3.52042e-005 -2.124e-005 -1.1e-005 1.1e-005 8.75617 -118.318 0.740764 -153.528 19.7638 4e-006 3.55271e-015 -80.9486 7.13692e-005 0.00266895 18.6534 3.55271e-015 3.55271e-015 -6.4976 7.58431 2.88408 5.09144 13.9567 -7.75074e-007 94.446 -14.4349 -5.06245 4.288 -7.10543e-015 1e-006 70.5 -7.77162e-006 -5.75641e-007 3.858 1e-006 -1e-006 -2.5 -2.47515e-005 -4.06854e-007 9.14145 -0.006317 0.32166 -9.94724 0.352409 1.81693 8.04417 -0.006294 9.5e-005 -6.49999 -0.00416721 -6.09312 8.04447 -0.006301 8.6e-005 -7.02591 -0.00254887 -4.27154 8.04243 -0.008205 2.4e-005 -3.81147 -0.0099419 -13.0958 10.6696 1.06798 6.06025e-006 -4.65186 -0.245589 17.7012 -0.864132 -4.31787 -9.83713 -129.127 -65.3221 165.257 19.0492 -1e-006 1e-006 73.7766 7.91642 -101.885 10.3706 1e-006 -3.55271e-014 -42.5598 0.001129 0.0024119 22.8631 1e-006 -2.13163e-014 -38.6093 22.0167 4.00814 6.48256 0.103653 0.504495 -61.7284 -10.0093 -14.724 3.66843 -2.88658e-013 1e-006 40.107 2.20528e-005 -3.54462e-006 -6.55643 -4.39814 7.33645 133.948 66.9241 -63.7805 19.0492 -1e-006 5e-006 85.1293 2.08371 85.3261 10.3706 -1e-006 4.44089e-014 -67.8154 0.000758449 0.00388161 22.8631 7.10543e-015 -5.32907e-015 -26.6741 -13.2124 -8.39038 6.48256 0.103651 -0.504495 -54.014 -7.74648 6.74651 3.66843 4.42757e-013 -1e-006 40.107 2.45693e-005 -2.25033e-005 7.52716 -0.006629 3.70002e-005 3.05742 0.913653 -17.717 8.47204 -0.005931 2.29997e-005 2.48116 -0.219917 -5.07854 8.41605 3e-006 1.74083e-013 -61.1565 -9.99256 37.3393 -3e-006 3e-006 -3e-006 -23.1098 1.37701e-015 90 -4.81298e-007 -0.500002 9.53477e-006 -109.695 90 -160.305 0 0 0 -99.049 7.01671e-015 -180 4.16665 14.3475 3.88993 -22.989 1.37021e-015 90 0 0 0 -87.1065 -1.52588e-005 -180 0 0 0 -162.289 1.75024e-005 -5.23347e-006 0 0 0 170.24 -2.62351e-005 1.30754e-005 0 0 0 1.83152 -4.81697e-008 -5.78912e-009 0 0 0 -17.65 1.42995e-007 6.94971e-008 0 0 0 -26.1943 8.42455e-009 3.32944e-008 15.5776 -0.000396 -7e-006 3.18055e-015 -5.01931e-015 -1.59028e-015 9.40587 1.0411 -6.51596 70.3397 -28.946 146.584 2.76732 -0.003047 -0.005001 -39.6036 50.8656 39.8733 9.40621 1.04106 6.51599 70.3399 28.946 -146.584 2.76732 -0.003095 0.004978 -39.6037 -50.8656 -39.8733 
0 0 -13.9282 -0 -90 -0 3.16166 -28.7019 44.8781 84.5825 -1.04838 100.912 0 0 0 -90.0002 -3.3166e-005 -88.5801 -6.47441 -3.86247 -0.160605 150.41 -1.02334 -15.9217 8.89589 -0.007942 7.7e-005 -7.5013 -1.45685 -14.7686 10.2239 -0.007621 0.00018 8.09636 -1.41915 -14.5197 9.85422 -0.005924 9.9e-005 18.8599 -1.40997 -16.9873 8.04664 -0.005523 0.000129 28.2956 -1.4014 -20.1986 1.5e-005 -1.1e-005 -8.75617 -89.1543 -10.7437 162.806 19.7638 1e-006 1e-006 -48.0251 0.000830389 0.00125301 18.6534 1e-006 1e-006 -15.9679 -5.06542 -4.59833 5.09143 13.9567 -7.10543e-015 129.209 10.2351 7.77761 4.28801 3.55271e-015 -7.10543e-015 42 2.07438e-005 -1.02364e-006 3.85803 -1.2e-005 1.00001e-006 -45 -3.91507e-005 -2.50653e-005 -1.1e-005 1.1e-005 8.75617 -119.594 -0.276561 -154.032 19.7638 4e-006 1.06581e-014 -81.4774 4.68238e-005 0.0026695 18.6534 -1.06581e-014 3.55271e-015 -6.95783 8.07222 4.162 5.09144 13.9567 -7.69739e-007 94.446 -14.4349 -5.06245 4.288 -2.13163e-014 1e-006 70.5 -7.29099e-006 -6.16789e-007 3.858 1e-006 -1e-006 -2.5 -2.45989e-005 -4.27183e-007 9.14389 -0.006317 0.226936 -9.95162 0.249943 3.17583 8.04417 -0.006294 9.5e-005 -6.4993 -0.00225453 -3.88012 8.04447 -0.006301 8.6e-005 -7.02565 -0.00361945 -5.1718 8.04243 -0.008205 2.4e-005 -3.81098 -0.00906172 -11.9848 10.6696 1.06798 6.06161e-006 -4.64613 -0.263428 18.9954 -0.633097 -4.31421 -9.8573 -127.319 -64.2775 167.253 19.0492 -1e-006 1e-006 70.5478 7.93823 -99.0787 10.3706 1e-006 -4.61853e-014 -44.0477 0.00108698 0.00241844 22.8631 1e-006 -2.84217e-014 -38.3751 23.1308 5.86794 6.48256 0.103653 0.504495 -61.7085 -10.4302 -14.7053 3.66843 -2.94875e-013 1e-006 40.107 2.39341e-005 -4.58457e-006 -6.72736 -4.40093 7.17971 131.884 65.9229 -61.527 19.0492 -1e-006 5e-006 87.2071 2.13135 88.0409 10.3706 -1e-006 4.44089e-014 -65.901 0.000828456 0.00388039 22.8631 7.10543e-015 -8.88179e-015 -27.701 -12.6462 -6.92933 6.48256 0.103651 -0.504495 -54.014 -7.74648 6.74651 3.66843 4.67626e-013 -1e-006 40.107 2.52174e-005 -2.26425e-005 7.52716 -0.006629 3.70002e-005 3.08291 0.985931 -19.2421 8.47204 -0.005931 2.29997e-005 2.47591 -0.24593 -5.68555 8.41605 3e-006 1.7053e-013 -60.6178 -5.26384 48.9518 -3e-006 3e-006 -3e-006 -23.1098 1.37701e-015 90 -4.80246e-007 -0.500002 9.53472e-006 -109.731 90 -160.269 0 0 0 -99.049 -7.01671e-015 -180 4.04923 14.3833 3.88993 -22.989 1.37021e-015 90 0 0 0 -87.0222 -1.52588e-005 -180 0 0 0 -162.289 1.59941e-005 -5.31475e-006 0 0 0 170.24 -2.74965e-005 1.27766e-005 0 0 0 1.83152 4.99036e-008 9.42064e-009 0 0 0 -17.65 -2.26027e-007 -1.04457e-007 0 0 0 -26.1943 -8.91128e-008 -4.51423e-008 15.5776 -0.000396 -7e-006 6.89673e-033 -4.96962e-016 7.95139e-016 9.40587 1.0411 -6.51596 70.3397 -28.946 146.584 2.76732 -0.003047 -0.005001 -39.6036 50.8656 39.8733 9.40621 1.04106 6.51599 70.3399 28.946 -146.584 2.76732 -0.003095 0.004978 -39.6037 -50.8656 -39.8733 
0 0 -13.9282 -0 -90 -0 2.20012 -28.7019 44.8781 87.3391 -0.515671 100.95 0 0 0 -90.0005 3.05686e-005 -89.6553 -6.47586 -3.86247 -0.0389415 150.881 -1.96663 -12.0858 8.89589 -0.007942 7.7e-005 -7.46089 -0.774346 -4.47247 10.2239 -0.007621 0.00018 8.27962 -0.771914 -13.4328 9.85422 -0.005924 9.9e-005 19.0141 -0.758606 -22.0288 8.04664 -0.005523 0.000129 28.4171 -0.733777 -32.921 1.5e-005 -1.1e-005 -8.75617 -89.4238 -11.6211 162.671 19.7638 1e-006 1e-006 -48.8797 0.000811608 0.00126525 18.6534 1e-006 1e-006 -18.8699 -3.31276 -2.37092 5.09143 13.9567 1.42109e-014 129.209 10.2351 7.77761 4.28801 -3.55271e-015 3.55271e-015 42 2.56838e-005 -1.20505e-006 3.85803 -1.2e-005 1.00001e-006 -45 -4.27321e-005 -2.8416e-005 -1.1e-005 1.1e-005 8.75617 -122.268 -1.21967 -156.021 19.7638 4e-006 7.10543e-015 -83.2364 -3.49937e-005 0.00266968 18.6534 3.55271e-015 0 -6.82578 8.14147 7.41756 5.09144 13.9567 -7.74715e-007 94.446 -14.4349 -5.06245 4.288 -7.10543e-015 1e-006 70.5 -6.27155e-006 -6.57809e-007 3.858 1e-006 -1e-006 -2.5 -2.40265e-005 -4.71017e-007 9.14585 -0.006317 0.055341 -9.95562 0.0642722 5.05772 8.04417 -0.006294 9.5e-005 -6.49884 0.000884258 -0.00123656 8.04447 -0.006301 8.6e-005 -7.026 -0.00419043 -6.14351 8.04243 -0.008205 2.4e-005 -3.81034 -0.00507085 -7.22837 10.6696 1.06798 6.04989e-006 -4.63923 -0.285223 20.3382 -0.524421 -4.31222 -9.86447 -126.525 -63.7809 168.139 19.0492 -1e-006 1e-006 64.0251 0.52948 -92.2151 10.3706 1e-006 -5.68434e-014 -49.1746 0.000945676 0.00243676 22.8631 1e-006 -2.84217e-014 -36.3678 26.0772 8.67825 6.48256 0.103653 0.504495 -61.6639 -11.2133 -14.669 3.66843 -7.46958e-013 1e-006 40.107 4.38325e-005 -2.09226e-005 -6.80598 -4.40244 7.10429 130.984 65.4422 -60.5412 19.0492 -1e-006 5e-006 92.184 -2.28149 93.5203 10.3706 -1e-006 3.55271e-014 -59.8815 0.0010564 0.00387362 22.8631 -7.10543e-015 2.66454e-015 -31.4443 -11.1462 -4.34187 6.48256 0.103651 -0.504495 -54.014 -7.74648 6.74651 3.66843 4.44089e-013 -1e-006 40.107 2.41413e-005 -2.1606e-005 7.52716 -0.006629 3.70003e-005 3.09724 1.02426 -20.0357 8.47204 -0.005931 2.29997e-005 2.47381 -0.257711 -5.9602 8.41605 3e-006 2.02505e-013 -61.1482 1.64979 47.7026 -3e-006 3e-006 -3e-006 -23.1098 1.37701e-015 90 -4.78566e-007 -0.500002 9.53559e-006 -109.064 90 -160.936 0 0 0 -99.049 -7.01671e-015 -180 3.9318 14.4192 3.88993 -22.989 1.37021e-015 90 0 0 0 -86.9379 -1.52588e-005 -180 0 0 0 -162.289 1.3571e-005 -5.40731e-006 0 0 0 170.24 -2.96806e-005 1.23167e-005 0 0 0 1.83152 1.37203e-007 2.50679e-008 0 0 0 -17.65 -5.44183e-007 -2.79291e-007 0 0 0 -26.1943 -1.3706e-007 -1.47255e-007 15.5776 -0.000396 -7e-006 -6.06912e-032 2.18663e-015 1.59028e-015 9.40587 1.0411 -6.51596 70.3397 -28.946 146.584 2.76732 -0.003047 -0.005001 -39.6036 50.8656 39.8733 9.40621 1.04106 6.51599 70.3399 28.946 -146.584 2.76732 -0.003095 0.004978 -39.6037 -50.8656 -39.8733 
